inDegrees=yes
name=ik_S42_A05_T02
DataType=double
version=3
OpenSimVersion=4.3-2021-08-27-4bc7ad9
endheader
time	pelvis_tilt	pelvis_list	pelvis_rotation	pelvis_tx	pelvis_ty	pelvis_tz	hip_flexion_r	hip_adduction_r	hip_rotation_r	knee_angle_r	knee_angle_r_beta	ankle_angle_r	subtalar_angle_r	mtp_angle_r	hip_flexion_l	hip_adduction_l	hip_rotation_l	knee_angle_l	knee_angle_l_beta	ankle_angle_l	subtalar_angle_l	mtp_angle_l	lumbar_extension	lumbar_bending	lumbar_rotation	arm_flex_r	arm_add_r	arm_rot_r	elbow_flex_r	pro_sup_r	wrist_flex_r	wrist_dev_r	arm_flex_l	arm_add_l	arm_rot_l	elbow_flex_l	pro_sup_l	wrist_flex_l	wrist_dev_l
14.79999999999977	-4.742383039048937	-6.233214261467359	34.72039354502091	0	0.9399999999999999	0	44.38133465094394	-10.14405404222158	-10.18215447270413	54.77204007513856	0.9559524373454501	0	0	0	44.38133465094394	-10.14405404222158	-10.18215447270413	54.77204007513856	0.9559524373454501	0	0	0	-5.666644966595801	-5.159645433647059	5.86311656289652	74.17301002820432	24.61441129554036	5.020145311316648	18.75926845247371	96.26870534311556	0	0	39.56289173540246	2.451653497168239	34.47839787097109	33.44095054675513	119.2351888926685	0	0
14.81999999999977	-4.753750135564196	-6.290094606314763	34.80175425469508	0	0.9399999999999999	0	44.38165433130886	-10.14379375654999	-10.18194342885008	54.77211888662951	0.9559538128654558	0	0	0	44.38165433130886	-10.14379375654999	-10.18194342885008	54.77211888662951	0.9559538128654558	0	0	0	-5.70759130658415	-5.201347270401302	5.875236921183398	74.35111105196378	24.7099565066413	4.779012135736373	18.38662452203992	96.58960679279068	0	0	39.6240993453119	2.439454640197988	34.54627995380257	33.45349849370209	119.2987796613265	0	0
14.83999999999977	-4.76602010833902	-6.295515644861512	34.84613330380466	0	0.9399999999999999	0	44.38170902733187	-10.14374997113153	-10.18190771911195	54.77213257999063	0.955954051859693	0	0	0	44.38170902733187	-10.14374997113153	-10.18190771911195	54.77213257999063	0.955954051859693	0	0	0	-5.720526625847079	-5.199317714848579	5.880681087462895	74.40068474275951	24.8128624301038	4.717072806022482	18.36445114932546	96.58597939736691	0	0	39.60834605391485	2.508069310478719	34.5567407834658	33.47725539750682	119.2728467427053	0	0
14.85999999999977	-4.771882556723798	-6.326332705972651	34.88288682538396	0	0.9399999999999999	0	44.38185707637204	-10.14363059671065	-10.18181059059197	54.77216937991983	0.955954694139622	0	0	0	44.38185707637204	-10.14363059671065	-10.18181059059197	54.77216937991983	0.955954694139622	0	0	0	-5.743638985438388	-5.219964376053603	5.875382138304221	74.5512996451354	24.90980139449217	4.559025876665359	18.21893512878825	96.47393751779747	0	0	39.65551550025913	2.486799315949321	34.6139607928873	33.4954791276999	119.2515240845599	0	0
14.87999999999977	-4.795760499571357	-6.352941917102682	34.92520904263607	0	0.9399999999999999	0	44.38197105645291	-10.14353868515999	-10.18173580306609	54.77219769784561	0.9559551883806642	0	0	0	44.38197105645291	-10.14353868515999	-10.18173580306609	54.77219769784561	0.9559551883806642	0	0	0	-5.778420876187329	-5.228343522697648	5.881196579535029	74.69811242946987	24.8823468211941	4.617700191076638	18.19305928355825	96.44443300997891	0	0	39.6928460622872	2.514168980873834	34.62517004500607	33.53214334705051	119.2394175699983	0	0
14.89999999999977	-4.790681726320822	-6.371871145553148	34.95554952814732	0	0.9399999999999999	0	44.38203600064588	-10.14348675838507	-10.18169342629932	54.77221395626996	0.9559554721437002	0	0	0	44.38203600064588	-10.14348675838507	-10.18169342629932	54.77221395626996	0.9559554721437002	0	0	0	-5.785743197070736	-5.245563671031411	5.874034067828249	74.72837997660079	24.90261859622854	4.764310121279732	18.21616350781598	96.44834166447953	0	0	39.69081166266454	2.492662264006623	34.64945125186647	33.54805998984185	119.2490165562564	0	0
14.91999999999977	-4.795754953888578	-6.368861882493431	34.96247952520224	0	0.9399999999999999	0	44.38479894533414	-10.14205351762413	-10.18024420589512	54.77293878166707	0.9559681227333819	0	0	0	44.38479894533414	-10.14205351762413	-10.18024420589512	54.77293878166707	0.9559681227333819	0	0	0	-5.793472734167811	-5.230993943112484	5.859814086972106	74.70789061132506	24.91950380703565	4.825857031904177	18.25846940977924	96.48596859375915	0	0	39.67368046977204	2.496981347183382	34.67366298171611	33.60611663370318	119.2156853457642	0	0
